<svg xmlns="http://www.w3.org/2000/svg" width="88.665" height="61.169" viewBox="0 0 88.665 61.169"><g id="Group_938" data-name="Group 938" transform="translate(-1007.948 -279.421)" fill="#fff"><path id="Path_703" data-name="Path 703" d="M1011.776 334.534h-.089c.089.914.157 2.609.157 4.3v9.655h-1.852v-15.917h2.966l4.9 13.044h.091l4.994-13.044h2.943v15.921h-1.984V338.7c0-1.538.089-3.189.157-4.147h-.091l-5.306 13.936h-1.649z" transform="translate(-.313 -8.125)"/><path id="Path_704" data-name="Path 704" d="M1042.725 349.208h-1.605l-.291-1.583h-.089a4.314 4.314 0 0 1-3.791 1.807c-2.875 0-4.347-1.316-4.347-4.348v-7.827h1.983v7.693c0 1.918.848 2.854 2.653 2.854 2.653 0 3.524-1.538 3.524-4.326v-6.22h1.962z" transform="translate(-3.769 -8.842)"/><path id="Path_705" data-name="Path 705" d="M1051.3 349.391a7.7 7.7 0 0 1-3.746-.759v-1.782a9.041 9.041 0 0 0 3.791.958c1.985 0 2.832-.691 2.832-1.761 0-.892-.6-1.427-2.945-2.319-2.318-.892-3.7-1.6-3.7-3.566 0-2.03 1.807-3.167 4.483-3.167a9.328 9.328 0 0 1 3.812.8l-.668 1.562a8.5 8.5 0 0 0-3.278-.759c-1.605 0-2.475.558-2.475 1.45 0 1 .782 1.4 3.078 2.275 2.275.846 3.59 1.627 3.59 3.544 0 2.319-1.851 3.524-4.772 3.524" transform="translate(-6.051 -8.801)"/><path id="Path_706" data-name="Path 706" d="M1061.788 342.011h6.087c-.021-2.03-.913-3.412-2.9-3.412-1.873 0-2.988 1.271-3.189 3.412m8.139.379v1.182h-8.183c.067 2.7 1.427 4.148 3.812 4.148a8.962 8.962 0 0 0 3.836-.824v1.716a8.938 8.938 0 0 1-3.925.78c-3.411 0-5.753-2.118-5.753-6.109 0-3.924 2.119-6.287 5.285-6.287 3.055 0 4.928 2.14 4.928 5.4" transform="translate(-7.914 -8.801)"/><path id="Path_707" data-name="Path 707" d="M1084.751 349.208h-1.605l-.291-1.583h-.089a4.314 4.314 0 0 1-3.791 1.807c-2.875 0-4.347-1.316-4.347-4.348v-7.827h1.983v7.693c0 1.918.848 2.854 2.653 2.854 2.653 0 3.524-1.538 3.524-4.326v-6.22h1.962z" transform="translate(-10.194 -8.842)"/><path id="Path_708" data-name="Path 708" d="M1107.475 341.386v7.782h-1.941v-7.693c0-1.873-.78-2.831-2.43-2.831-2.319 0-3.233 1.383-3.233 3.924v6.6h-1.939v-7.693c0-1.873-.78-2.831-2.452-2.831-2.409 0-3.189 1.538-3.189 4.325v6.2h-1.962v-11.952h1.583l.29 1.628h.112a3.964 3.964 0 0 1 3.522-1.852c1.828 0 3.078.647 3.657 2.007h.112a4.305 4.305 0 0 1 3.835-2.007c2.7 0 4.036 1.316 4.036 4.393" transform="translate(-12.594 -8.801)"/><path id="Path_709" data-name="Path 709" d="M1088.031 291.544h-.423v-.731h.423a.366.366 0 1 1 0 .731m.331.241a.683.683 0 0 0 .367-.607.67.67 0 0 0-.65-.673h-.779v2.078h.307v-.731h.449l.409.731h.347zm.975-.241a1.359 1.359 0 0 0-1.384-1.386 1.336 1.336 0 0 0-1.387 1.386 1.385 1.385 0 0 0 2.77 0m-3.115 0a1.674 1.674 0 0 1 1.732-1.732 1.7 1.7 0 0 1 1.731 1.732 1.732 1.732 0 0 1-3.464 0m-60.264.089a2.386 2.386 0 0 1 .188-1.128h-8.689a2.385 2.385 0 0 1 .188 1.128v10.905a2.381 2.381 0 0 1-.188 1.128h8.689a2.383 2.383 0 0 1-.188-1.128zm50.76 7.184a472.922 472.922 0 0 0 1.1-3.047 6.875 6.875 0 0 0 .229-.867 8.164 8.164 0 0 0 .259.867l1.163 3.047zm12.183 3.716l-4.176-10.9a1.926 1.926 0 0 1-.247-1.128h-11.146a2.425 2.425 0 0 1-.222 1.128l-3.956 10.906a3.264 3.264 0 0 1-.6 1.127h6.6a2.371 2.371 0 0 1 .216-1.128c.135-.38.27-.753.27-.753l.071-.2h4.817l.075.2c.174.449.3.754.3.754a2.426 2.426 0 0 1 .252 1.128h8.362a3.414 3.414 0 0 1-.618-1.132M1067.52 290.5h-15.428a2.386 2.386 0 0 1 .188 1.128v10.905a2.388 2.388 0 0 1-.188 1.128h15.428v-3.652a2.386 2.386 0 0 1-1.129.188h-6.491v-1.732h6.235V295.7h-6.235v-1.732h6.491a2.446 2.446 0 0 1 1.129.183zm-37.594 0a2.383 2.383 0 0 1 .188 1.128v10.905a2.39 2.39 0 0 1-.188 1.128h8a2.383 2.383 0 0 1-.188-1.128v-4.587s2.2 3.337 2.609 3.949a4.331 4.331 0 0 1 .775 1.765h9.589a7.4 7.4 0 0 1-.941-1.128c-.5-.754-4.345-6.61-4.345-6.61s2.6-3.161 3.055-3.719a8.8 8.8 0 0 1 1.727-1.7h-8.333a4.9 4.9 0 0 1-1 1.789c-.583.778-3.14 4.1-3.14 4.1v-4.76a2.386 2.386 0 0 1 .188-1.128zm-20.246 6.927c0 8.71 17.857 15.932 42.6 15.932s42.6-7.222 42.6-15.932-17.858-15.933-42.6-15.933-42.6 7.223-42.6 15.933m86.934 18.01h-88.665v-36.016h88.665z"/></g></svg>