<svg width="153" height="61" viewBox="0 0 160 64" fill="none" xmlns="http://www.w3.org/2000/svg">
<path d="M0 0V64H160V0H0Z" fill="#0058A3"/>
<path d="M3.09998 32.6C3.09998 48.1 35.3 61 79.9 61C124.5 61 156.7 48.1 156.7 32.6C156.7 17.1 124.6 4.19995 80 4.19995C35.4 4.19995 3.09998 17.1 3.09998 32.6Z" fill="#FFDB00"/>
<path d="M121.2 43.7H109.3C109.8 43.1 110.2 42.4 110.4 41.7L117.5 22.3V22.2C117.8 21.6 117.9 20.9 117.9 20.2H138C137.9 20.8 138 21.3 138.3 21.8C138.3 21.9 138.4 22 138.4 22.2C139 23.6 145.4 40.1 145.9 41.6C146.1 42.3 146.5 43 147 43.6H132C132 42.9 131.9 42.2 131.5 41.6C131.5 41.6 131.3 41 130.9 40.3L130.8 40H122.1L122 40.4C122 40.4 121.7 41.1 121.5 41.7L121.4 41.9C121.3 42.4 121.2 43.1 121.2 43.7ZM126.4 28.1C126.3 28.6 126.2 29.1 126 29.6C126 29.7 125.7 30.4 125.4 31.4C125 32.4 124.6 33.7 124.1 35.1H129.1L127 29.7C126.7 29.1 126.5 28.6 126.4 28.1ZM54.0999 43.7H39.7C40 43.1 40.1 42.4 40 41.7V22.3C40.1 21.6 39.9 20.9 39.7 20.3H54.0999C53.7999 20.9 53.7 21.6 53.7999 22.3V30.8C53.7999 30.8 58.4 24.9 59.5 23.5C59.9 23 61.2999 21.1 61.2999 20.3H76.3C75.1 21.2 74.0999 22.2 73.1999 23.3C72.3999 24.3 67.6999 29.9 67.6999 29.9C67.6999 29.9 74.5999 40.2 75.5 41.7C76 42.4 76.5999 43.1 77.1999 43.7H59.7999C59.5999 42.6 59.1 41.5 58.4 40.6C57.7 39.6 54.1 34.2 53.7 33.6V41.8C53.7 42.3 53.7999 43 54.0999 43.7ZM107.5 43.7H79.5999C79.8999 43.1 80 42.4 79.9 41.7V22.3C80 21.6 79.7999 20.9 79.5999 20.3H107.4V26.8C106.8 26.5 106.1 26.4 105.4 26.5H93.7V29.6H105V34.6H93.7V37.7H105.4C106.1 37.8 106.8 37.6 107.4 37.4L107.5 43.7ZM32.8 43.7H17.2C17.5 43.1 17.6 42.4 17.5 41.7V22.3C17.6 21.6 17.4 20.9 17.2 20.3H32.9C32.6 20.9 32.5 21.6 32.6 22.3V41.7C32.4 42.3 32.6 43 32.8 43.7ZM144.3 25.3C143.4 25.3 142.6 24.9 142 24.3C141.4 23.7 141.1 22.9 141.2 22.1C141.2 22 141.2 22 141.2 21.9C141.2 20.3 142.6 19 144.2 19H144.3H144.4C146.1 19 147.4 20.4 147.4 22.1V22.3C147.4 23.1 147 23.9 146.5 24.4C145.9 24.9 145.1 25.3 144.3 25.3ZM144.1 19.6C143.5 19.6 142.9 19.9 142.4 20.4C142 20.9 141.7 21.5 141.8 22.1V22.3C141.8 23.6 142.9 24.7 144.3 24.7H144.4C145.1 24.7 145.7 24.4 146.2 23.9C146.7 23.4 146.9 22.8 146.9 22.1V22C146.9 20.7 145.8 19.6 144.4 19.6H144.1ZM143.7 23.9H143.1V20.2H144.5C145.2 20.2 145.7 20.7 145.7 21.4C145.7 21.9 145.4 22.3 145 22.5L145.8 23.9H145.2L144.5 22.6H143.7V23.9ZM143.7 20.8V22.1H144.5C144.8 22.1 145.1 21.8 145.1 21.5C145.1 21.1 144.8 20.8 144.5 20.8H143.7Z" fill="#0058A3"/>
</svg>
